<svg xmlns="http://www.w3.org/2000/svg" xmlns:xlink="http://www.w3.org/1999/xlink" width="336" zoomAndPan="magnify" viewBox="0 0 252 143.999998" height="192" preserveAspectRatio="xMidYMid meet" version="1.0"><defs><g/><clipPath id="9f036b675a"><path d="M 176 58 L 208 58 L 208 87.449219 L 176 87.449219 Z M 176 58 " clip-rule="nonzero"/></clipPath><clipPath id="a5c8efe1ca"><path d="M 182 40.949219 L 222 40.949219 L 222 75 L 182 75 Z M 182 40.949219 " clip-rule="nonzero"/></clipPath></defs><rect x="-25.2" width="302.4" fill="#ffffff" y="-14.4" height="172.799997" fill-opacity="1"/><rect x="-25.2" width="302.4" fill="#ffffff" y="-14.4" height="172.799997" fill-opacity="1"/><rect x="-25.2" width="302.4" fill="#ffffff" y="-14.4" height="172.799997" fill-opacity="1"/><g clip-path="url(#9f036b675a)"><path fill="#f69000" d="M 180.738281 87.449219 C 179.34375 86.058594 177.972656 84.648438 176.542969 83.292969 C 175.828125 82.613281 175.800781 82.105469 176.566406 81.4375 C 178.1875 80.03125 179.753906 78.566406 181.339844 77.121094 C 182.890625 75.710938 184.441406 74.292969 185.980469 72.890625 C 184.585938 70.207031 184.25 67.488281 184.902344 64.664062 C 185.382812 62.605469 186.394531 60.820312 187.871094 59.300781 C 188.261719 58.898438 188.6875 58.582031 189.210938 59.039062 C 189.75 59.515625 189.457031 59.957031 189.0625 60.363281 C 188.867188 60.558594 188.675781 60.761719 188.503906 60.976562 C 186.367188 63.621094 185.621094 66.601562 186.503906 69.894531 C 187.683594 74.316406 191.585938 77.273438 196.128906 77.28125 C 200.691406 77.289062 204.527344 74.320312 205.789062 69.800781 C 205.941406 69.25 206.023438 68.496094 206.839844 68.6875 C 207.710938 68.890625 207.476562 69.640625 207.328125 70.230469 C 206.160156 74.882812 202.042969 78.359375 197.25 78.792969 C 194.808594 79.011719 192.519531 78.515625 190.347656 77.34375 C 187.328125 80.738281 184.34375 84.09375 181.363281 87.449219 Z M 182.792969 83.46875 C 184.875 81.117188 186.902344 78.824219 188.933594 76.527344 L 186.617188 74.480469 L 179.777344 80.664062 Z M 178.054688 82.234375 L 181.179688 85.289062 L 182.269531 84.058594 L 179.203125 81.214844 Z M 178.054688 82.234375 " fill-opacity="1" fill-rule="nonzero"/></g><g clip-path="url(#a5c8efe1ca)"><path fill="#f69000" d="M 207.167969 62.566406 C 207.878906 62.472656 208.289062 62.253906 208.464844 61.433594 C 208.828125 59.726562 210.53125 58.523438 212.300781 58.53125 C 214.078125 58.539062 215.664062 59.761719 216.15625 61.449219 C 216.554688 62.824219 216.132812 64.019531 215.378906 65.167969 C 217.429688 67.769531 219.460938 70.347656 221.496094 72.917969 C 221.878906 73.402344 222.300781 73.902344 221.613281 74.410156 C 220.972656 74.886719 220.617188 74.355469 220.265625 73.914062 C 218.40625 71.554688 216.523438 69.207031 214.6875 66.832031 C 214.304688 66.335938 214 66.148438 213.339844 66.351562 C 211.605469 66.886719 209.839844 66.234375 208.9375 64.6875 C 208.558594 64.035156 208.144531 63.960938 207.523438 64.0625 C 206.226562 64.277344 204.929688 64.488281 203.628906 64.675781 C 202.941406 64.773438 202.519531 64.957031 202.292969 65.78125 C 201.535156 68.542969 198.871094 70.089844 195.914062 69.648438 C 193.304688 69.257812 191.324219 66.824219 191.324219 64.066406 C 191.328125 62.453125 192.03125 61.15625 193.089844 59.980469 C 191.425781 57.148438 189.796875 54.347656 188.117188 51.578125 C 187.972656 51.339844 187.460938 51.1875 187.136719 51.214844 C 184.746094 51.40625 182.972656 50.21875 182.496094 48.019531 C 182.171875 46.507812 182.78125 45.277344 183.78125 44.199219 C 183.351562 43.457031 182.882812 42.800781 182.597656 42.070312 C 182.480469 41.777344 182.761719 41.328125 182.863281 40.949219 C 183.210938 41.0625 183.652344 41.089844 183.890625 41.320312 C 184.226562 41.644531 184.457031 42.101562 184.65625 42.539062 C 184.945312 43.179688 185.316406 43.394531 186.082031 43.328125 C 188.382812 43.125 190.300781 44.617188 190.371094 46.832031 C 190.40625 47.988281 189.851562 49.160156 189.46875 50.703125 L 194.386719 59.046875 C 198.53125 57.792969 201.175781 59.136719 202.597656 63.234375 C 204.105469 63.011719 205.632812 62.769531 207.167969 62.566406 Z M 192.867188 64.117188 C 192.847656 66.335938 194.738281 68.1875 196.992188 68.167969 C 199.253906 68.148438 200.984375 66.332031 200.953125 64.007812 C 200.921875 61.847656 199.109375 60.09375 196.933594 60.113281 C 194.710938 60.128906 192.882812 61.929688 192.867188 64.117188 Z M 186.429688 49.703125 C 187.769531 49.699219 188.847656 48.617188 188.855469 47.269531 C 188.863281 45.933594 187.769531 44.8125 186.449219 44.808594 C 185.136719 44.804688 184.023438 45.925781 184.019531 47.257812 C 184.015625 48.605469 185.097656 49.707031 186.429688 49.703125 Z M 212.300781 64.972656 C 213.601562 64.953125 214.667969 63.894531 214.699219 62.59375 C 214.730469 61.226562 213.679688 60.132812 212.320312 60.113281 C 210.964844 60.09375 209.882812 61.15625 209.871094 62.527344 C 209.859375 63.871094 210.976562 64.996094 212.300781 64.972656 Z M 212.300781 64.972656 " fill-opacity="1" fill-rule="nonzero"/></g><path fill="#f69000" d="M 187.777344 66.949219 C 187.726562 67.289062 187.609375 67.636719 187.636719 67.972656 C 187.976562 72.203125 191.351562 75.519531 195.617188 75.808594 C 195.902344 75.828125 196.207031 75.617188 196.503906 75.511719 C 196.21875 75.347656 195.945312 75.058594 195.648438 75.035156 C 191.6875 74.730469 188.753906 71.816406 188.425781 67.828125 C 188.402344 67.523438 188.261719 67.234375 188.179688 66.9375 Z M 187.777344 66.949219 " fill-opacity="1" fill-rule="nonzero"/><g fill="#164c63" fill-opacity="1"><g transform="translate(52.747067, 74.356279)"><g><path d="M 0.90625 -8.4375 C 0.90625 -9.800781 1.320312 -10.796875 2.15625 -11.421875 C 2.988281 -12.054688 4.296875 -12.375 6.078125 -12.375 C 7.796875 -12.375 9.429688 -12.195312 10.984375 -11.84375 L 10.484375 -8.921875 C 9.710938 -9.128906 8.765625 -9.234375 7.640625 -9.234375 C 6.796875 -9.234375 6.066406 -9.160156 5.453125 -9.015625 L 5.453125 -7.671875 C 7.035156 -7.492188 8.265625 -7.25 9.140625 -6.9375 C 10.015625 -6.632812 10.640625 -6.222656 11.015625 -5.703125 C 11.390625 -5.179688 11.578125 -4.5 11.578125 -3.65625 C 11.578125 -2.238281 11.113281 -1.210938 10.1875 -0.578125 C 9.269531 0.046875 7.796875 0.359375 5.765625 0.359375 C 4.890625 0.359375 4.007812 0.289062 3.125 0.15625 C 2.238281 0.0195312 1.4375 -0.175781 0.71875 -0.4375 L 1.28125 -3.515625 C 2.457031 -3.023438 3.742188 -2.78125 5.140625 -2.78125 C 5.640625 -2.78125 6.273438 -2.851562 7.046875 -3 L 7.046875 -4.390625 C 5.347656 -4.585938 4.066406 -4.828125 3.203125 -5.109375 C 2.347656 -5.390625 1.75 -5.78125 1.40625 -6.28125 C 1.070312 -6.789062 0.90625 -7.507812 0.90625 -8.4375 Z M 0.90625 -8.4375 "/></g></g></g><g fill="#164c63" fill-opacity="1"><g transform="translate(64.422291, 74.356279)"><g><path d="M 6.875 -12.359375 C 8.71875 -12.359375 10.054688 -12.039062 10.890625 -11.40625 C 11.722656 -10.769531 12.140625 -9.75 12.140625 -8.34375 L 12.140625 0 L 10.046875 0 L 8.984375 -1.203125 C 7.765625 -0.171875 6.390625 0.34375 4.859375 0.34375 C 3.429688 0.34375 2.390625 0.0234375 1.734375 -0.609375 C 1.085938 -1.242188 0.765625 -2.25 0.765625 -3.625 C 0.765625 -4.65625 0.960938 -5.445312 1.359375 -6 C 1.753906 -6.5625 2.414062 -6.960938 3.34375 -7.203125 C 4.269531 -7.441406 5.582031 -7.5625 7.28125 -7.5625 L 7.90625 -7.5625 L 7.90625 -9.078125 C 7.570312 -9.179688 7.078125 -9.234375 6.421875 -9.234375 C 4.972656 -9.234375 3.441406 -9.023438 1.828125 -8.609375 L 1.328125 -11.5625 C 2.992188 -12.09375 4.84375 -12.359375 6.875 -12.359375 Z M 6.203125 -2.578125 C 6.859375 -2.578125 7.304688 -2.644531 7.546875 -2.78125 C 7.785156 -2.925781 7.90625 -3.203125 7.90625 -3.609375 L 7.90625 -5.359375 L 6.390625 -5.359375 C 5.734375 -5.359375 5.28125 -5.28125 5.03125 -5.125 C 4.78125 -4.976562 4.65625 -4.695312 4.65625 -4.28125 L 4.65625 -2.578125 Z M 6.203125 -2.578125 "/></g></g></g><g fill="#164c63" fill-opacity="1"><g transform="translate(77.274666, 74.356279)"><g><path d="M 5.625 -3.03125 C 6.039062 -2.96875 6.425781 -2.921875 6.78125 -2.890625 L 6.578125 -0.03125 C 5.703125 0.21875 4.90625 0.34375 4.1875 0.34375 C 3.238281 0.34375 2.535156 0.144531 2.078125 -0.25 C 1.617188 -0.644531 1.390625 -1.257812 1.390625 -2.09375 L 1.390625 -15.625 L 5.625 -15.984375 Z M 5.625 -3.03125 "/></g></g></g><g fill="#164c63" fill-opacity="1"><g transform="translate(83.880936, 74.356279)"><g><path d="M 6.875 -12.359375 C 8.71875 -12.359375 10.054688 -12.039062 10.890625 -11.40625 C 11.722656 -10.769531 12.140625 -9.75 12.140625 -8.34375 L 12.140625 0 L 10.046875 0 L 8.984375 -1.203125 C 7.765625 -0.171875 6.390625 0.34375 4.859375 0.34375 C 3.429688 0.34375 2.390625 0.0234375 1.734375 -0.609375 C 1.085938 -1.242188 0.765625 -2.25 0.765625 -3.625 C 0.765625 -4.65625 0.960938 -5.445312 1.359375 -6 C 1.753906 -6.5625 2.414062 -6.960938 3.34375 -7.203125 C 4.269531 -7.441406 5.582031 -7.5625 7.28125 -7.5625 L 7.90625 -7.5625 L 7.90625 -9.078125 C 7.570312 -9.179688 7.078125 -9.234375 6.421875 -9.234375 C 4.972656 -9.234375 3.441406 -9.023438 1.828125 -8.609375 L 1.328125 -11.5625 C 2.992188 -12.09375 4.84375 -12.359375 6.875 -12.359375 Z M 6.203125 -2.578125 C 6.859375 -2.578125 7.304688 -2.644531 7.546875 -2.78125 C 7.785156 -2.925781 7.90625 -3.203125 7.90625 -3.609375 L 7.90625 -5.359375 L 6.390625 -5.359375 C 5.734375 -5.359375 5.28125 -5.28125 5.03125 -5.125 C 4.78125 -4.976562 4.65625 -4.695312 4.65625 -4.28125 L 4.65625 -2.578125 Z M 6.203125 -2.578125 "/></g></g></g><g fill="#164c63" fill-opacity="1"><g transform="translate(96.733311, 74.356279)"><g><path d="M 4.734375 -10.359375 C 5.804688 -11.398438 6.976562 -12.070312 8.25 -12.375 L 8.5 -8.265625 C 8.082031 -8.203125 7.578125 -8.050781 6.984375 -7.8125 C 6.398438 -7.582031 5.960938 -7.363281 5.671875 -7.15625 L 5.671875 0 L 1.4375 0 L 1.4375 -12.015625 L 3.53125 -12.015625 Z M 4.734375 -10.359375 "/></g></g></g><g fill="#164c63" fill-opacity="1"><g transform="translate(104.805006, 74.356279)"><g><path d="M 12.09375 -12.015625 L 9.28125 -1.078125 L 9.25 -1.078125 C 8.914062 0.285156 8.5 1.351562 8 2.125 C 7.5 2.90625 6.859375 3.460938 6.078125 3.796875 C 5.304688 4.128906 4.3125 4.296875 3.09375 4.296875 C 2.132812 4.296875 1.238281 4.175781 0.40625 3.9375 L 0.59375 1.703125 L 3.203125 1.390625 C 3.679688 1.328125 4.046875 1.226562 4.296875 1.09375 C 4.554688 0.96875 4.753906 0.769531 4.890625 0.5 C 5.023438 0.226562 5.148438 -0.175781 5.265625 -0.71875 L 5.359375 -1.078125 L 2.90625 -1.078125 L 0.09375 -12.015625 L 4.234375 -12.015625 L 5.953125 -4.78125 L 6.203125 -4.78125 L 7.953125 -12.015625 Z M 12.09375 -12.015625 "/></g></g></g><g fill="#164c63" fill-opacity="1"><g transform="translate(116.360111, 74.356279)"><g><path d="M 8.296875 -12.375 C 9.492188 -12.375 10.453125 -12.160156 11.171875 -11.734375 C 11.890625 -11.316406 12.414062 -10.640625 12.75 -9.703125 C 13.09375 -8.773438 13.265625 -7.539062 13.265625 -6 C 13.265625 -4.46875 13.066406 -3.238281 12.671875 -2.3125 C 12.285156 -1.394531 11.671875 -0.722656 10.828125 -0.296875 C 9.984375 0.128906 8.859375 0.34375 7.453125 0.34375 C 6.285156 0.34375 5.234375 0.269531 4.296875 0.125 C 3.367188 -0.0195312 2.414062 -0.253906 1.4375 -0.578125 L 1.4375 -15.71875 L 5.671875 -16.046875 L 5.671875 -11.921875 C 6.347656 -12.222656 7.222656 -12.375 8.296875 -12.375 Z M 8.71875 -9.15625 L 6.65625 -9.15625 C 6.269531 -9.15625 6.007812 -9.109375 5.875 -9.015625 C 5.738281 -8.929688 5.671875 -8.757812 5.671875 -8.5 L 5.671875 -2.890625 L 7.765625 -2.890625 C 8.128906 -2.890625 8.378906 -2.929688 8.515625 -3.015625 C 8.648438 -3.097656 8.71875 -3.265625 8.71875 -3.515625 Z M 8.71875 -9.15625 "/></g></g></g><g fill="#164c63" fill-opacity="1"><g transform="translate(129.90917, 74.356279)"><g><path d="M 6.875 -12.359375 C 8.71875 -12.359375 10.054688 -12.039062 10.890625 -11.40625 C 11.722656 -10.769531 12.140625 -9.75 12.140625 -8.34375 L 12.140625 0 L 10.046875 0 L 8.984375 -1.203125 C 7.765625 -0.171875 6.390625 0.34375 4.859375 0.34375 C 3.429688 0.34375 2.390625 0.0234375 1.734375 -0.609375 C 1.085938 -1.242188 0.765625 -2.25 0.765625 -3.625 C 0.765625 -4.65625 0.960938 -5.445312 1.359375 -6 C 1.753906 -6.5625 2.414062 -6.960938 3.34375 -7.203125 C 4.269531 -7.441406 5.582031 -7.5625 7.28125 -7.5625 L 7.90625 -7.5625 L 7.90625 -9.078125 C 7.570312 -9.179688 7.078125 -9.234375 6.421875 -9.234375 C 4.972656 -9.234375 3.441406 -9.023438 1.828125 -8.609375 L 1.328125 -11.5625 C 2.992188 -12.09375 4.84375 -12.359375 6.875 -12.359375 Z M 6.203125 -2.578125 C 6.859375 -2.578125 7.304688 -2.644531 7.546875 -2.78125 C 7.785156 -2.925781 7.90625 -3.203125 7.90625 -3.609375 L 7.90625 -5.359375 L 6.390625 -5.359375 C 5.734375 -5.359375 5.28125 -5.28125 5.03125 -5.125 C 4.78125 -4.976562 4.65625 -4.695312 4.65625 -4.28125 L 4.65625 -2.578125 Z M 6.203125 -2.578125 "/></g></g></g><g fill="#164c63" fill-opacity="1"><g transform="translate(142.761548, 74.356279)"><g><path d="M 1.4375 -12.015625 L 3.53125 -12.015625 L 4.609375 -10.8125 C 5.941406 -11.84375 7.515625 -12.359375 9.328125 -12.359375 C 10.441406 -12.359375 11.3125 -12.128906 11.9375 -11.671875 C 12.5625 -11.210938 12.875 -10.570312 12.875 -9.75 L 12.875 0 L 8.65625 0 L 8.65625 -8.875 L 6.875 -8.875 C 6.425781 -8.875 6.113281 -8.804688 5.9375 -8.671875 C 5.757812 -8.546875 5.671875 -8.332031 5.671875 -8.03125 L 5.671875 0 L 1.4375 0 Z M 1.4375 -12.015625 "/></g></g></g><g fill="#164c63" fill-opacity="1"><g transform="translate(156.33463, 74.356279)"><g><path d="M 12.71875 -16.046875 L 12.71875 0 L 10.625 0 L 9.828125 -1.125 C 9.429688 -0.613281 8.90625 -0.238281 8.25 0 C 7.601562 0.238281 6.804688 0.359375 5.859375 0.359375 C 4.660156 0.359375 3.703125 0.148438 2.984375 -0.265625 C 2.265625 -0.691406 1.734375 -1.367188 1.390625 -2.296875 C 1.054688 -3.234375 0.890625 -4.46875 0.890625 -6 C 0.890625 -7.539062 1.054688 -8.769531 1.390625 -9.6875 C 1.734375 -10.613281 2.265625 -11.289062 2.984375 -11.71875 C 3.703125 -12.144531 4.660156 -12.359375 5.859375 -12.359375 C 6.929688 -12.359375 7.804688 -12.203125 8.484375 -11.890625 L 8.484375 -15.71875 Z M 7.515625 -2.859375 C 7.890625 -2.859375 8.144531 -2.898438 8.28125 -2.984375 C 8.414062 -3.078125 8.484375 -3.253906 8.484375 -3.515625 L 8.484375 -9.125 L 6.421875 -9.125 C 6.035156 -9.125 5.773438 -9.082031 5.640625 -9 C 5.503906 -8.914062 5.4375 -8.742188 5.4375 -8.484375 L 5.4375 -2.859375 Z M 7.515625 -2.859375 "/></g></g></g><g fill="#164c63" fill-opacity="1"><g transform="translate(169.88369, 74.356279)"><g><path d="M 0.90625 -8.4375 C 0.90625 -9.800781 1.320312 -10.796875 2.15625 -11.421875 C 2.988281 -12.054688 4.296875 -12.375 6.078125 -12.375 C 7.796875 -12.375 9.429688 -12.195312 10.984375 -11.84375 L 10.484375 -8.921875 C 9.710938 -9.128906 8.765625 -9.234375 7.640625 -9.234375 C 6.796875 -9.234375 6.066406 -9.160156 5.453125 -9.015625 L 5.453125 -7.671875 C 7.035156 -7.492188 8.265625 -7.25 9.140625 -6.9375 C 10.015625 -6.632812 10.640625 -6.222656 11.015625 -5.703125 C 11.390625 -5.179688 11.578125 -4.5 11.578125 -3.65625 C 11.578125 -2.238281 11.113281 -1.210938 10.1875 -0.578125 C 9.269531 0.046875 7.796875 0.359375 5.765625 0.359375 C 4.890625 0.359375 4.007812 0.289062 3.125 0.15625 C 2.238281 0.0195312 1.4375 -0.175781 0.71875 -0.4375 L 1.28125 -3.515625 C 2.457031 -3.023438 3.742188 -2.78125 5.140625 -2.78125 C 5.640625 -2.78125 6.273438 -2.851562 7.046875 -3 L 7.046875 -4.390625 C 5.347656 -4.585938 4.066406 -4.828125 3.203125 -5.109375 C 2.347656 -5.390625 1.75 -5.78125 1.40625 -6.28125 C 1.070312 -6.789062 0.90625 -7.507812 0.90625 -8.4375 Z M 0.90625 -8.4375 "/></g></g></g></svg>